<!-- favicon-heart-valley.svg -->
<svg viewBox="0 0 32 32" width="32" height="32" xmlns="http://www.w3.org/2000/svg" fill="none">
  <!-- Use currentColor so it adapts to your theme -->
  <defs>
    <mask id="valleyCut">
      <!-- Start fully opaque -->
      <rect x="0" y="0" width="32" height="32" fill="#fff"/>
      <!-- Cut a V-shaped valley and a small river from the heart -->
      <path d="M16 9.5 L13.2 14.2 L16 13 L18.8 14.2 Z" fill="#000"/>
      <path d="M16 14 C16 14 14.5 15 14.8 16.2 C15.3 18.2 19.2 17.6 19.2 19.4
               C19.2 20.8 17.8 21.1 16.9 21.6" stroke="#000" stroke-width="2" stroke-linecap="round"/>
    </mask>
  </defs>

  <!-- Heart (solid), valley+river are cut out by mask -->
  <path mask="url(#valleyCut)"
        fill="currentColor"
        d="M16 27s-7.1-4.5-10.2-7.6C3 17.6 2 15.6 2 13.5C2 9.9 4.9 7 8.5 7
           c2.1 0 4 1 5.2 2.6C14.9 8 16.8 7 18.9 7C22.5 7 25.4 9.9 25.4 13.5
           c0 2.1-1 4.1-3.8 5.9C23.1 22.5 16 27 16 27z"/>
</svg>
